<svg class="marks" width="556" height="442" viewBox="0 0 556 442" version="1.1" xmlns="http://www.w3.org/2000/svg" xmlns:xlink="http://www.w3.org/1999/xlink"><defs><clipPath id="clip1"><rect x="0" y="0" width="400" height="400"></rect></clipPath></defs><g transform="translate(150,5)"><g class="mark-group role-frame root"><g transform="translate(0,0)"><path class="background" d="M0.5,0.5h400v400h-400Z" style="fill: none; stroke: #ddd;"></path><g><g class="mark-group role-axis"><g transform="translate(0.5,400.5)"><path class="background" d="M0,0h0v0h0Z" style="pointer-events: none; fill: none;"></path><g><g class="mark-rule role-axis-grid" style="pointer-events: none;"><line transform="translate(123,0)" x2="0" y2="-400" style="fill: none; stroke: #ddd; stroke-width: 1; opacity: 1;"></line><line transform="translate(188,0)" x2="0" y2="-400" style="fill: none; stroke: #ddd; stroke-width: 1; opacity: 1;"></line><line transform="translate(252,0)" x2="0" y2="-400" style="fill: none; stroke: #ddd; stroke-width: 1; opacity: 1;"></line><line transform="translate(59,0)" x2="0" y2="-400" style="fill: none; stroke: #ddd; stroke-width: 1; opacity: 1;"></line><line transform="translate(316,0)" x2="0" y2="-400" style="fill: none; stroke: #ddd; stroke-width: 1; opacity: 1;"></line><line transform="translate(380,0)" x2="0" y2="-400" style="fill: none; stroke: #ddd; stroke-width: 1; opacity: 1;"></line><line transform="translate(27,0)" x2="0" y2="-400" style="fill: none; stroke: #ddd; stroke-width: 1; opacity: 1;"></line><line transform="translate(91,0)" x2="0" y2="-400" style="fill: none; stroke: #ddd; stroke-width: 1; opacity: 1;"></line><line transform="translate(156,0)" x2="0" y2="-400" style="fill: none; stroke: #ddd; stroke-width: 1; opacity: 1;"></line><line transform="translate(220,0)" x2="0" y2="-400" style="fill: none; stroke: #ddd; stroke-width: 1; opacity: 1;"></line><line transform="translate(284,0)" x2="0" y2="-400" style="fill: none; stroke: #ddd; stroke-width: 1; opacity: 1;"></line><line transform="translate(348,0)" x2="0" y2="-400" style="fill: none; stroke: #ddd; stroke-width: 1; opacity: 1;"></line></g></g></g></g><g class="mark-rect role-mark marks" clip-path="url(#clip1)"><path d="M-4.62827494504845,1h380.8267540138419v18h-380.8267540138419Z" style="fill: #4c78a8;"></path><path d="M-4.62827494504845,21h189.2965970949836v18h-189.2965970949836Z" style="fill: #4c78a8;"></path><path d="M-4.62827494504845,41h106.90853709319671v18h-106.90853709319671Z" style="fill: #4c78a8;"></path><path d="M-4.62827494504845,61h93.25352466837305v18h-93.25352466837305Z" style="fill: #4c78a8;"></path><path d="M-4.62827494504845,81h79.051491856515v18h-79.051491856515Z" style="fill: #4c78a8;"></path><path d="M-4.62827494504845,101h59.07051533057687v18h-59.07051533057687Z" style="fill: #4c78a8;"></path><path d="M-4.62827494504845,121h40.574308426589255v18h-40.574308426589255Z" style="fill: #4c78a8;"></path><path d="M-4.62827494504845,141h37.487550528323695v18h-37.487550528323695Z" style="fill: #4c78a8;"></path><path d="M-4.62827494504845,161h26.08275194384179v18h-26.08275194384179Z" style="fill: #4c78a8;"></path><path d="M-4.62827494504845,181h23.607708881194327v18h-23.607708881194327Z" style="fill: #4c78a8;"></path><path d="M-4.62827494504845,201h19.39104001954623v18h-19.39104001954623Z" style="fill: #4c78a8;"></path><path d="M-4.62827494504845,221h18.47058534019209v18h-18.47058534019209Z" style="fill: #4c78a8;"></path><path d="M-4.62827494504845,241h15.409449005722053v18h-15.409449005722053Z" style="fill: #4c78a8;"></path><path d="M-4.62827494504845,261h15.297995203211528v18h-15.297995203211528Z" style="fill: #4c78a8;"></path><path d="M-4.62827494504845,281h14.474261927185484v18h-14.474261927185484Z" style="fill: #4c78a8;"></path><path d="M-4.62827494504845,301h13.95798741670571v18h-13.95798741670571Z" style="fill: #4c78a8;"></path><path d="M-4.62827494504845,321h12.710857798958656v18h-12.710857798958656Z" style="fill: #4c78a8;"></path><path d="M-4.62827494504845,341h12.523820383251344v18h-12.523820383251344Z" style="fill: #4c78a8;"></path><path d="M-4.62827494504845,361h11.850613794523992v18h-11.850613794523992Z" style="fill: #4c78a8;"></path><path d="M-4.62827494504845,381h11.197263917738171v18h-11.197263917738171Z" style="fill: #4c78a8;"></path></g><g class="mark-group role-axis"><g transform="translate(0.5,400.5)"><path class="background" d="M0,0h0v0h0Z" style="pointer-events: none; fill: none;"></path><g><g class="mark-rule role-axis-tick" style="pointer-events: none;"><line transform="translate(123,0)" x2="0" y2="5" style="fill: none; stroke: #888; stroke-width: 1; opacity: 1;"></line><line transform="translate(188,0)" x2="0" y2="5" style="fill: none; stroke: #888; stroke-width: 1; opacity: 1;"></line><line transform="translate(252,0)" x2="0" y2="5" style="fill: none; stroke: #888; stroke-width: 1; opacity: 1;"></line><line transform="translate(59,0)" x2="0" y2="5" style="fill: none; stroke: #888; stroke-width: 1; opacity: 1;"></line><line transform="translate(316,0)" x2="0" y2="5" style="fill: none; stroke: #888; stroke-width: 1; opacity: 1;"></line><line transform="translate(380,0)" x2="0" y2="5" style="fill: none; stroke: #888; stroke-width: 1; opacity: 1;"></line><line transform="translate(27,0)" x2="0" y2="5" style="fill: none; stroke: #888; stroke-width: 1; opacity: 1;"></line><line transform="translate(91,0)" x2="0" y2="5" style="fill: none; stroke: #888; stroke-width: 1; opacity: 1;"></line><line transform="translate(156,0)" x2="0" y2="5" style="fill: none; stroke: #888; stroke-width: 1; opacity: 1;"></line><line transform="translate(220,0)" x2="0" y2="5" style="fill: none; stroke: #888; stroke-width: 1; opacity: 1;"></line><line transform="translate(284,0)" x2="0" y2="5" style="fill: none; stroke: #888; stroke-width: 1; opacity: 1;"></line><line transform="translate(348,0)" x2="0" y2="5" style="fill: none; stroke: #888; stroke-width: 1; opacity: 1;"></line></g><g class="mark-text role-axis-label" style="pointer-events: none;"><text text-anchor="middle" transform="translate(123.4795440325635,15)" style="font-family: sans-serif; font-size: 10px; fill: #000; opacity: 0;">200,000</text><text text-anchor="middle" transform="translate(187.53345352136947,15)" style="font-family: sans-serif; font-size: 10px; fill: #000; opacity: 0;">300,000</text><text text-anchor="middle" transform="translate(251.58736301017544,15)" style="font-family: sans-serif; font-size: 10px; fill: #000; opacity: 0;">400,000</text><text text-anchor="middle" transform="translate(59.425634543757525,15)" style="font-family: sans-serif; font-size: 10px; fill: #000; opacity: 0;">100,000</text><text text-anchor="middle" transform="translate(315.6412724989814,15)" style="font-family: sans-serif; font-size: 10px; fill: #000; opacity: 0;">500,000</text><text text-anchor="middle" transform="translate(379.69518198778735,15)" style="font-family: sans-serif; font-size: 10px; fill: #000; opacity: 0;">600,000</text><text text-anchor="middle" transform="translate(27.398679799354536,15)" style="font-family: sans-serif; font-size: 10px; fill: #000; opacity: 1;">50,000</text><text text-anchor="middle" transform="translate(91.4525892881605,15)" style="font-family: sans-serif; font-size: 10px; fill: #000; opacity: 1;">150,000</text><text text-anchor="middle" transform="translate(155.50649877696648,15)" style="font-family: sans-serif; font-size: 10px; fill: #000; opacity: 1;">250,000</text><text text-anchor="middle" transform="translate(219.56040826577245,15)" style="font-family: sans-serif; font-size: 10px; fill: #000; opacity: 1;">350,000</text><text text-anchor="middle" transform="translate(283.6143177545784,15)" style="font-family: sans-serif; font-size: 10px; fill: #000; opacity: 1;">450,000</text><text text-anchor="middle" transform="translate(347.66822724338437,15)" style="font-family: sans-serif; font-size: 10px; fill: #000; opacity: 1;">550,000</text></g><g class="mark-rule role-axis-domain" style="pointer-events: none;"><line transform="translate(0,0)" x2="400" y2="0" style="fill: none; stroke: #888; stroke-width: 1; opacity: 1;"></line></g><g class="mark-text role-axis-title" style="pointer-events: none;"><text text-anchor="middle" transform="translate(200,30)" style="font-family: sans-serif; font-size: 11px; font-weight: bold; fill: #000; opacity: 1;">Total Number of Tickets</text></g></g></g></g><g class="mark-group role-axis"><g transform="translate(0.5,0.5)"><path class="background" d="M0,0h0v0h0Z" style="pointer-events: none; fill: none;"></path><g><g class="mark-rule role-axis-tick" style="pointer-events: none;"><line transform="translate(0,9)" x2="-5" y2="0" style="fill: none; stroke: #888; stroke-width: 1; opacity: 1;"></line><line transform="translate(0,29)" x2="-5" y2="0" style="fill: none; stroke: #888; stroke-width: 1; opacity: 1;"></line><line transform="translate(0,49)" x2="-5" y2="0" style="fill: none; stroke: #888; stroke-width: 1; opacity: 1;"></line><line transform="translate(0,69)" x2="-5" y2="0" style="fill: none; stroke: #888; stroke-width: 1; opacity: 1;"></line><line transform="translate(0,89)" x2="-5" y2="0" style="fill: none; stroke: #888; stroke-width: 1; opacity: 1;"></line><line transform="translate(0,109)" x2="-5" y2="0" style="fill: none; stroke: #888; stroke-width: 1; opacity: 1;"></line><line transform="translate(0,129)" x2="-5" y2="0" style="fill: none; stroke: #888; stroke-width: 1; opacity: 1;"></line><line transform="translate(0,149)" x2="-5" y2="0" style="fill: none; stroke: #888; stroke-width: 1; opacity: 1;"></line><line transform="translate(0,169)" x2="-5" y2="0" style="fill: none; stroke: #888; stroke-width: 1; opacity: 1;"></line><line transform="translate(0,189)" x2="-5" y2="0" style="fill: none; stroke: #888; stroke-width: 1; opacity: 1;"></line><line transform="translate(0,209)" x2="-5" y2="0" style="fill: none; stroke: #888; stroke-width: 1; opacity: 1;"></line><line transform="translate(0,229)" x2="-5" y2="0" style="fill: none; stroke: #888; stroke-width: 1; opacity: 1;"></line><line transform="translate(0,249)" x2="-5" y2="0" style="fill: none; stroke: #888; stroke-width: 1; opacity: 1;"></line><line transform="translate(0,269)" x2="-5" y2="0" style="fill: none; stroke: #888; stroke-width: 1; opacity: 1;"></line><line transform="translate(0,289)" x2="-5" y2="0" style="fill: none; stroke: #888; stroke-width: 1; opacity: 1;"></line><line transform="translate(0,309)" x2="-5" y2="0" style="fill: none; stroke: #888; stroke-width: 1; opacity: 1;"></line><line transform="translate(0,329)" x2="-5" y2="0" style="fill: none; stroke: #888; stroke-width: 1; opacity: 1;"></line><line transform="translate(0,349)" x2="-5" y2="0" style="fill: none; stroke: #888; stroke-width: 1; opacity: 1;"></line><line transform="translate(0,369)" x2="-5" y2="0" style="fill: none; stroke: #888; stroke-width: 1; opacity: 1;"></line><line transform="translate(0,389)" x2="-5" y2="0" style="fill: none; stroke: #888; stroke-width: 1; opacity: 1;"></line></g><g class="mark-text role-axis-label" style="pointer-events: none;"><text text-anchor="end" transform="translate(-7,12)" style="font-family: sans-serif; font-size: 10px; fill: #000; opacity: 1;">NO PARK/STREET CLEAN</text><text text-anchor="end" transform="translate(-7,32)" style="font-family: sans-serif; font-size: 10px; fill: #000; opacity: 1;">METER EXPIRED</text><text text-anchor="end" transform="translate(-7,52)" style="font-family: sans-serif; font-size: 10px; fill: #000; opacity: 1;">RED ZONE</text><text text-anchor="end" transform="translate(-7,72)" style="font-family: sans-serif; font-size: 10px; fill: #000; opacity: 1;">PREF PARKING</text><text text-anchor="end" transform="translate(-7,92)" style="font-family: sans-serif; font-size: 10px; fill: #000; opacity: 1;">DISPLAY OF TABS</text><text text-anchor="end" transform="translate(-7,112)" style="font-family: sans-serif; font-size: 10px; fill: #000; opacity: 1;">NO PARKING</text><text text-anchor="end" transform="translate(-7,132)" style="font-family: sans-serif; font-size: 10px; fill: #000; opacity: 1;">PKD OVER TIME LIMIT</text><text text-anchor="end" transform="translate(-7,152)" style="font-family: sans-serif; font-size: 10px; fill: #000; opacity: 1;">DISPLAY OF PLATES</text><text text-anchor="end" transform="translate(-7,172)" style="font-family: sans-serif; font-size: 10px; fill: #000; opacity: 1;">WHITE ZONE</text><text text-anchor="end" transform="translate(-7,192)" style="font-family: sans-serif; font-size: 10px; fill: #000; opacity: 1;">NO STOP/STANDING</text><text text-anchor="end" transform="translate(-7,212)" style="font-family: sans-serif; font-size: 10px; fill: #000; opacity: 1;">STNDNG IN ALLEY</text><text text-anchor="end" transform="translate(-7,232)" style="font-family: sans-serif; font-size: 10px; fill: #000; opacity: 1;">BLOCKING DRIVEWAY</text><text text-anchor="end" transform="translate(-7,252)" style="font-family: sans-serif; font-size: 10px; fill: #000; opacity: 1;">NO EVIDENCE OF REG</text><text text-anchor="end" transform="translate(-7,272)" style="font-family: sans-serif; font-size: 10px; fill: #000; opacity: 1;">PARK IN GRID LOCK ZN</text><text text-anchor="end" transform="translate(-7,292)" style="font-family: sans-serif; font-size: 10px; fill: #000; opacity: 1;">STOP/STAND PROHIBIT</text><text text-anchor="end" transform="translate(-7,312)" style="font-family: sans-serif; font-size: 10px; fill: #000; opacity: 1;">NO STOP/STAND AM</text><text text-anchor="end" transform="translate(-7,332)" style="font-family: sans-serif; font-size: 10px; fill: #000; opacity: 1;">EXCEED 72HRS-ST</text><text text-anchor="end" transform="translate(-7,352)" style="font-family: sans-serif; font-size: 10px; fill: #000; opacity: 1;">YELLOW ZONE</text><text text-anchor="end" transform="translate(-7,372)" style="font-family: sans-serif; font-size: 10px; fill: #000; opacity: 1;">18 IN. CURB/2 WAY</text><text text-anchor="end" transform="translate(-7,392)" style="font-family: sans-serif; font-size: 10px; fill: #000; opacity: 1;">PARKED ON SIDEWALK</text></g><g class="mark-rule role-axis-domain" style="pointer-events: none;"><line transform="translate(0,0)" x2="0" y2="400" style="fill: none; stroke: #888; stroke-width: 1; opacity: 1;"></line></g><g class="mark-text role-axis-title" style="pointer-events: none;"><text text-anchor="middle" transform="translate(-133.6171875,200) rotate(-90) translate(0,-2)" style="font-family: sans-serif; font-size: 11px; font-weight: bold; fill: #000; opacity: 1;">Violations</text></g></g></g></g></g></g></g></g></svg>