<svg class="marks" width="876" height="349" viewBox="0 0 876 349" version="1.1" xmlns="http://www.w3.org/2000/svg" xmlns:xlink="http://www.w3.org/1999/xlink"><g transform="translate(64,10)"><g class="mark-group role-frame root"><g transform="translate(0,0)"><path class="background" d="M0.5,0.5h650v300h-650Z" style="fill: none; stroke: #ddd;"></path><g><g class="mark-group role-axis"><g transform="translate(0.5,0.5)"><path class="background" d="M0,0h0v0h0Z" style="pointer-events: none; fill: none;"></path><g><g class="mark-rule role-axis-grid" style="pointer-events: none;"><line transform="translate(0,300)" x2="650" y2="0" style="fill: none; stroke: #ddd; stroke-width: 1; opacity: 1;"></line><line transform="translate(0,275)" x2="650" y2="0" style="fill: none; stroke: #ddd; stroke-width: 1; opacity: 1;"></line><line transform="translate(0,250)" x2="650" y2="0" style="fill: none; stroke: #ddd; stroke-width: 1; opacity: 1;"></line><line transform="translate(0,225)" x2="650" y2="0" style="fill: none; stroke: #ddd; stroke-width: 1; opacity: 1;"></line><line transform="translate(0,200)" x2="650" y2="0" style="fill: none; stroke: #ddd; stroke-width: 1; opacity: 1;"></line><line transform="translate(0,175)" x2="650" y2="0" style="fill: none; stroke: #ddd; stroke-width: 1; opacity: 1;"></line><line transform="translate(0,150)" x2="650" y2="0" style="fill: none; stroke: #ddd; stroke-width: 1; opacity: 1;"></line><line transform="translate(0,125)" x2="650" y2="0" style="fill: none; stroke: #ddd; stroke-width: 1; opacity: 1;"></line><line transform="translate(0,100)" x2="650" y2="0" style="fill: none; stroke: #ddd; stroke-width: 1; opacity: 1;"></line><line transform="translate(0,75)" x2="650" y2="0" style="fill: none; stroke: #ddd; stroke-width: 1; opacity: 1;"></line><line transform="translate(0,50)" x2="650" y2="0" style="fill: none; stroke: #ddd; stroke-width: 1; opacity: 1;"></line><line transform="translate(0,25)" x2="650" y2="0" style="fill: none; stroke: #ddd; stroke-width: 1; opacity: 1;"></line><line transform="translate(0,0)" x2="650" y2="0" style="fill: none; stroke: #ddd; stroke-width: 1; opacity: 1;"></line></g></g></g></g><g class="mark-rect role-mark marks"><path d="M1.3541666666666856,280.97125h24.375v5.926249999999982h-24.375Z" style="fill: #8D6E63 ;"></path><path d="M1.3541666666666856,286.8975h24.375v4.863750000000039h-24.375Z" style="fill: #9B59B6;"></path><path d="M1.3541666666666856,291.76125h24.375v4.551249999999982h-24.375Z" style="fill: #2980B9;"></path><path d="M1.3541666666666856,296.3125h24.375v2.0337499999999977h-24.375Z" style="fill: #AED581;"></path><path d="M1.3541666666666856,298.34625h24.375v1.6537500000000023h-24.375Z" style="fill: #27AE60;"></path><path d="M28.437500000000018,261.31875h24.375v15.864999999999952h-24.375Z" style="fill: #2980B9;"></path><path d="M28.437500000000018,277.18375h24.375v7.988750000000039h-24.375Z" style="fill: #9B59B6;"></path><path d="M28.437500000000018,285.1725h24.375v5.887499999999989h-24.375Z" style="fill: #AED581;"></path><path d="M28.437500000000018,291.06h24.375v4.766250000000014h-24.375Z" style="fill: #8D6E63 ;"></path><path d="M28.437500000000018,295.82625h24.375v4.173749999999984h-24.375Z" style="fill: #27AE60;"></path><path d="M55.52083333333335,258.8325h24.375v14.140000000000043h-24.375Z" style="fill: #9B59B6;"></path><path d="M55.52083333333335,272.9725h24.375v13.875h-24.375Z" style="fill: #2980B9;"></path><path d="M55.52083333333335,286.8475h24.375v6.17999999999995h-24.375Z" style="fill: #8D6E63 ;"></path><path d="M55.52083333333335,293.0275h24.375v4.94500000000005h-24.375Z" style="fill: #AED581;"></path><path d="M55.52083333333335,297.9725h24.375v2.027499999999975h-24.375Z" style="fill: #566573;"></path><path d="M82.60416666666669,276.95875h24.375v9.214999999999975h-24.375Z" style="fill: #2980B9;"></path><path d="M82.60416666666669,286.17375h24.375v5.141250000000014h-24.375Z" style="fill: #9B59B6;"></path><path d="M82.60416666666669,291.315h24.375v3.8274999999999864h-24.375Z" style="fill: #8D6E63 ;"></path><path d="M82.60416666666669,295.1425h24.375v3.2725000000000364h-24.375Z" style="fill: #AED581;"></path><path d="M82.60416666666669,298.415h24.375v1.5849999999999795h-24.375Z" style="fill: #E67E22;"></path><path d="M109.68750000000001,277.2475h24.375v9.21999999999997h-24.375Z" style="fill: #E74C3C;"></path><path d="M109.68750000000001,286.4675h24.375v7.336250000000007h-24.375Z" style="fill: #2980B9;"></path><path d="M109.68750000000001,293.80375h24.375v2.4424999999999955h-24.375Z" style="fill: #AED581;"></path><path d="M109.68750000000001,296.24625h24.375v1.9075000000000273h-24.375Z" style="fill: #8D6E63 ;"></path><path d="M109.68750000000001,298.15375h24.375v1.8462499999999977h-24.375Z" style="fill: #9B59B6;"></path><path d="M136.77083333333334,286.4h24.375v7.12375000000003h-24.375Z" style="fill: #2980B9;"></path><path d="M136.77083333333334,293.52375h24.375v1.8824999999999932h-24.375Z" style="fill: #AED581;"></path><path d="M136.77083333333334,295.40625h24.375v1.6050000000000182h-24.375Z" style="fill: #9B59B6;"></path><path d="M136.77083333333334,297.01125h24.375v1.5012499999999704h-24.375Z" style="fill: #E74C3C;"></path><path d="M136.77083333333334,298.5125h24.375v1.4875000000000114h-24.375Z" style="fill: #8D6E63 ;"></path><path d="M163.85416666666669,276.6725h24.375v7.9950000000000045h-24.375Z" style="fill: #2980B9;"></path><path d="M163.85416666666669,284.6675h24.375v7.711250000000007h-24.375Z" style="fill: #27AE60;"></path><path d="M163.85416666666669,292.37875h24.375v2.8587499999999864h-24.375Z" style="fill: #AED581;"></path><path d="M163.85416666666669,295.2375h24.375v2.6549999999999727h-24.375Z" style="fill: #9B59B6;"></path><path d="M163.85416666666669,297.8925h24.375v2.107500000000016h-24.375Z" style="fill: #8D6E63 ;"></path><path d="M190.9375,272.5575h24.375v5.927500000000009h-24.375Z" style="fill: #29B6F6;"></path><path d="M190.9375,278.485h24.375v5.712499999999977h-24.375Z" style="fill: #CACFD2;"></path><path d="M190.9375,284.1975h24.375v5.509999999999991h-24.375Z" style="fill: #2980B9;"></path><path d="M190.9375,289.7075h24.375v5.1650000000000205h-24.375Z" style="fill: #99A3A4;"></path><path d="M190.9375,294.8725h24.375v5.127499999999998h-24.375Z" style="fill: #9B59B6;"></path><path d="M218.02083333333334,19.413749999999993h24.375v221.345h-24.375Z" style="fill: #E74C3C;"></path><path d="M218.02083333333334,240.75875h24.375v27.867500000000035h-24.375Z" style="fill: #F1C40F;"></path><path d="M218.02083333333334,268.62625h24.375v14.838749999999948h-24.375Z" style="fill: #AED581;"></path><path d="M218.02083333333334,283.465h24.375v8.63250000000005h-24.375Z" style="fill: #2980B9;"></path><path d="M218.02083333333334,292.0975h24.375v7.902499999999975h-24.375Z" style="fill: #9B59B6;"></path><path d="M245.10416666666669,177.47875h24.375v74.49000000000001h-24.375Z" style="fill: #E74C3C;"></path><path d="M245.10416666666669,251.96875h24.375v18.886250000000018h-24.375Z" style="fill: #F1C40F;"></path><path d="M245.10416666666669,270.855h24.375v11.599999999999966h-24.375Z" style="fill: #2980B9;"></path><path d="M245.10416666666669,282.455h24.375v10.34375h-24.375Z" style="fill: #AED581;"></path><path d="M245.10416666666669,292.79875h24.375v7.201250000000016h-24.375Z" style="fill: #9B59B6;"></path><path d="M272.1875,49.025000000000006h24.375v178.30249999999998h-24.375Z" style="fill: #E74C3C;"></path><path d="M272.1875,227.3275h24.375v31.89625000000001h-24.375Z" style="fill: #F1C40F;"></path><path d="M272.1875,259.22375h24.375v15.872500000000002h-24.375Z" style="fill: #AED581;"></path><path d="M272.1875,275.09625h24.375v14.441250000000025h-24.375Z" style="fill: #2980B9;"></path><path d="M272.1875,289.5375h24.375v10.462499999999977h-24.375Z" style="fill: #0B5345;"></path><path d="M299.2708333333333,151.33625h24.375v51.08375000000001h-24.375Z" style="fill: #F1C40F;"></path><path d="M299.2708333333333,202.42000000000002h24.375v48.889999999999986h-24.375Z" style="fill: #E74C3C;"></path><path d="M299.2708333333333,251.31h24.375v19.17500000000001h-24.375Z" style="fill: #2980B9;"></path><path d="M299.2708333333333,270.485h24.375v15.1875h-24.375Z" style="fill: #AED581;"></path><path d="M299.2708333333333,285.6725h24.375v14.327499999999986h-24.375Z" style="fill: #0B5345;"></path><path d="M326.3541666666667,40.05124999999998h24.375v166.01125000000002h-24.375Z" style="fill: #E74C3C;"></path><path d="M326.3541666666667,206.0625h24.375v44.82124999999999h-24.375Z" style="fill: #F1C40F;"></path><path d="M326.3541666666667,250.88375h24.375v17.616250000000008h-24.375Z" style="fill: #2980B9;"></path><path d="M326.3541666666667,268.5h24.375v17.439999999999998h-24.375Z" style="fill: #AED581;"></path><path d="M326.3541666666667,285.94h24.375v14.060000000000002h-24.375Z" style="fill: #0B5345;"></path><path d="M353.4375,198.2375h24.375v37.34749999999997h-24.375Z" style="fill: #F1C40F;"></path><path d="M353.4375,235.58499999999998h24.375v28.99000000000001h-24.375Z" style="fill: #E74C3C;"></path><path d="M353.4375,264.575h24.375v12.452499999999986h-24.375Z" style="fill: #2980B9;"></path><path d="M353.4375,277.0275h24.375v12.053750000000036h-24.375Z" style="fill: #0B5345;"></path><path d="M353.4375,289.08125h24.375v10.918749999999989h-24.375Z" style="fill: #AED581;"></path><path d="M380.5208333333333,231.99h24.375v33.203750000000014h-24.375Z" style="fill: #F1C40F;"></path><path d="M380.5208333333333,265.19375h24.375v10.379999999999995h-24.375Z" style="fill: #2980B9;"></path><path d="M380.5208333333333,275.57375h24.375v9.602499999999964h-24.375Z" style="fill: #0B5345;"></path><path d="M380.5208333333333,285.17625h24.375v8.127499999999998h-24.375Z" style="fill: #AED581;"></path><path d="M380.5208333333333,293.30375h24.375v6.6962500000000205h-24.375Z" style="fill: #E74C3C;"></path><path d="M407.6041666666667,255.9475h24.375v22.673749999999984h-24.375Z" style="fill: #F1C40F;"></path><path d="M407.6041666666667,278.62125h24.375v6.331250000000011h-24.375Z" style="fill: #2980B9;"></path><path d="M407.6041666666667,284.9525h24.375v5.617500000000007h-24.375Z" style="fill: #0B5345;"></path><path d="M407.6041666666667,290.57h24.375v4.831250000000011h-24.375Z" style="fill: #AED581;"></path><path d="M407.6041666666667,295.40125h24.375v4.5987499999999955h-24.375Z" style="fill: #8D6E63 ;"></path><path d="M434.6875,229.12625h24.375v28.789999999999992h-24.375Z" style="fill: #F1C40F;"></path><path d="M434.6875,257.91625h24.375v14.512499999999989h-24.375Z" style="fill: #29B6F6;"></path><path d="M434.6875,272.42875h24.375v14.487500000000011h-24.375Z" style="fill: #99A3A4;"></path><path d="M434.6875,286.91625h24.375v6.990000000000009h-24.375Z" style="fill: #AED581;"></path><path d="M434.6875,293.90625h24.375v6.09375h-24.375Z" style="fill: #2980B9;"></path><path d="M461.7708333333333,250.31125h24.375v29.518749999999983h-24.375Z" style="fill: #F1C40F;"></path><path d="M461.7708333333333,279.83h24.375v6.197499999999991h-24.375Z" style="fill: #AED581;"></path><path d="M461.7708333333333,286.0275h24.375v5.516250000000014h-24.375Z" style="fill: #2980B9;"></path><path d="M461.7708333333333,291.54375h24.375v4.551250000000039h-24.375Z" style="fill: #8D6E63 ;"></path><path d="M461.7708333333333,296.095h24.375v3.9049999999999727h-24.375Z" style="fill: #99A3A4;"></path><path d="M488.8541666666667,240.6475h24.375v31.39500000000001h-24.375Z" style="fill: #8D6E63 ;"></path><path d="M488.8541666666667,272.0425h24.375v15.567499999999995h-24.375Z" style="fill: #F1C40F;"></path><path d="M488.8541666666667,287.61h24.375v4.538749999999993h-24.375Z" style="fill: #AED581;"></path><path d="M488.8541666666667,292.14875h24.375v4.060000000000002h-24.375Z" style="fill: #2980B9;"></path><path d="M488.8541666666667,296.20875h24.375v3.791249999999991h-24.375Z" style="fill: #566573;"></path><path d="M515.9375,248.18125h24.375v23.036249999999967h-24.375Z" style="fill: #F1C40F;"></path><path d="M515.9375,271.2175h24.375v16.60125000000005h-24.375Z" style="fill: #8D6E63 ;"></path><path d="M515.9375,287.81875h24.375v4.84499999999997h-24.375Z" style="fill: #2980B9;"></path><path d="M515.9375,292.66375h24.375v3.707499999999982h-24.375Z" style="fill: #AED581;"></path><path d="M515.9375,296.37125h24.375v3.628750000000025h-24.375Z" style="fill: #566573;"></path><path d="M543.0208333333333,268.16875h24.375v18.61500000000001h-24.375Z" style="fill: #8D6E63 ;"></path><path d="M543.0208333333333,286.78375h24.375v5.063750000000027h-24.375Z" style="fill: #9B59B6;"></path><path d="M543.0208333333333,291.8475h24.375v3.8237499999999613h-24.375Z" style="fill: #2980B9;"></path><path d="M543.0208333333333,295.67125h24.375v2.2562500000000227h-24.375Z" style="fill: #AED581;"></path><path d="M543.0208333333333,297.9275h24.375v2.072499999999991h-24.375Z" style="fill: #566573;"></path><path d="M570.1041666666667,275.1925h24.375v13.715000000000032h-24.375Z" style="fill: #8D6E63 ;"></path><path d="M570.1041666666667,288.9075h24.375v4.077499999999986h-24.375Z" style="fill: #2980B9;"></path><path d="M570.1041666666667,292.985h24.375v2.632499999999993h-24.375Z" style="fill: #9B59B6;"></path><path d="M570.1041666666667,295.6175h24.375v2.3412500000000023h-24.375Z" style="fill: #641E16;"></path><path d="M570.1041666666667,297.95875h24.375v2.041249999999991h-24.375Z" style="fill: #AED581;"></path><path d="M597.1875,274.79125h24.375v8.91500000000002h-24.375Z" style="fill: #8D6E63 ;"></path><path d="M597.1875,283.70625h24.375v6.264999999999986h-24.375Z" style="fill: #9B59B6;"></path><path d="M597.1875,289.97125h24.375v4.6200000000000045h-24.375Z" style="fill: #2980B9;"></path><path d="M597.1875,294.59125h24.375v3.058749999999975h-24.375Z" style="fill: #27AE60;"></path><path d="M597.1875,297.65h24.375v2.3500000000000227h-24.375Z" style="fill: #641E16;"></path><path d="M624.2708333333333,282.6925h24.375v6.1337500000000205h-24.375Z" style="fill: #8D6E63 ;"></path><path d="M624.2708333333333,288.82625h24.375v4.613749999999982h-24.375Z" style="fill: #9B59B6;"></path><path d="M624.2708333333333,293.44h24.375v3.4212499999999864h-24.375Z" style="fill: #2980B9;"></path><path d="M624.2708333333333,296.86125h24.375v1.5699999999999932h-24.375Z" style="fill: #AED581;"></path><path d="M624.2708333333333,298.43125h24.375v1.5687500000000227h-24.375Z" style="fill: #27AE60;"></path></g><g class="mark-group role-legend"><g transform="translate(668,0)"><path class="background" d="M0,0h139v196h-139Z" style="pointer-events: none; fill: none;"></path><g><g class="mark-group role-legend-entry"><g transform="translate(0,16)"><path class="background" d="M0,0h0v0h0Z" style="pointer-events: none; fill: none;"></path><g><g class="mark-group role-scope"><g transform="translate(0,0)"><path class="background" d="M0,0h138.6171875v11h-138.6171875Z" style="pointer-events: none; fill: none; opacity: 1;"></path><g><g class="mark-symbol role-legend-symbol" style="pointer-events: none;"><path transform="translate(6,6)" d="M-5,-5h10v10h-10Z" style="fill: #8D6E63 ; stroke-width: 1.5; opacity: 1;"></path></g><g class="mark-text role-legend-label" style="pointer-events: none;"><text text-anchor="start" transform="translate(16,9)" style="font-family: sans-serif; font-size: 10px; fill: #000; opacity: 1;">PREF PARKING</text></g></g></g><g transform="translate(0,13)"><path class="background" d="M0,0h138.6171875v11h-138.6171875Z" style="pointer-events: none; fill: none; opacity: 1;"></path><g><g class="mark-symbol role-legend-symbol" style="pointer-events: none;"><path transform="translate(6,6)" d="M-5,-5h10v10h-10Z" style="fill: #9B59B6; stroke-width: 1.5; opacity: 1;"></path></g><g class="mark-text role-legend-label" style="pointer-events: none;"><text text-anchor="start" transform="translate(16,9)" style="font-family: sans-serif; font-size: 10px; fill: #000; opacity: 1;">NO PARKING</text></g></g></g><g transform="translate(0,26)"><path class="background" d="M0,0h138.6171875v11h-138.6171875Z" style="pointer-events: none; fill: none; opacity: 1;"></path><g><g class="mark-symbol role-legend-symbol" style="pointer-events: none;"><path transform="translate(6,6)" d="M-5,-5h10v10h-10Z" style="fill: #2980B9; stroke-width: 1.5; opacity: 1;"></path></g><g class="mark-text role-legend-label" style="pointer-events: none;"><text text-anchor="start" transform="translate(16,9)" style="font-family: sans-serif; font-size: 10px; fill: #000; opacity: 1;">RED ZONE</text></g></g></g><g transform="translate(0,39)"><path class="background" d="M0,0h138.6171875v11h-138.6171875Z" style="pointer-events: none; fill: none; opacity: 1;"></path><g><g class="mark-symbol role-legend-symbol" style="pointer-events: none;"><path transform="translate(6,6)" d="M-5,-5h10v10h-10Z" style="fill: #AED581; stroke-width: 1.5; opacity: 1;"></path></g><g class="mark-text role-legend-label" style="pointer-events: none;"><text text-anchor="start" transform="translate(16,9)" style="font-family: sans-serif; font-size: 10px; fill: #000; opacity: 1;">DISPLAY OF TABS</text></g></g></g><g transform="translate(0,52)"><path class="background" d="M0,0h138.6171875v11h-138.6171875Z" style="pointer-events: none; fill: none; opacity: 1;"></path><g><g class="mark-symbol role-legend-symbol" style="pointer-events: none;"><path transform="translate(6,6)" d="M-5,-5h10v10h-10Z" style="fill: #27AE60; stroke-width: 1.5; opacity: 1;"></path></g><g class="mark-text role-legend-label" style="pointer-events: none;"><text text-anchor="start" transform="translate(16,9)" style="font-family: sans-serif; font-size: 10px; fill: #000; opacity: 1;">WHITE ZONE</text></g></g></g><g transform="translate(0,65)"><path class="background" d="M0,0h138.6171875v11h-138.6171875Z" style="pointer-events: none; fill: none; opacity: 1;"></path><g><g class="mark-symbol role-legend-symbol" style="pointer-events: none;"><path transform="translate(6,6)" d="M-5,-5h10v10h-10Z" style="fill: #566573; stroke-width: 1.5; opacity: 1;"></path></g><g class="mark-text role-legend-label" style="pointer-events: none;"><text text-anchor="start" transform="translate(16,9)" style="font-family: sans-serif; font-size: 10px; fill: #000; opacity: 1;">DISPLAY OF PLATES</text></g></g></g><g transform="translate(0,78)"><path class="background" d="M0,0h138.6171875v11h-138.6171875Z" style="pointer-events: none; fill: none; opacity: 1;"></path><g><g class="mark-symbol role-legend-symbol" style="pointer-events: none;"><path transform="translate(6,6)" d="M-5,-5h10v10h-10Z" style="fill: #E67E22; stroke-width: 1.5; opacity: 1;"></path></g><g class="mark-text role-legend-label" style="pointer-events: none;"><text text-anchor="start" transform="translate(16,9)" style="font-family: sans-serif; font-size: 10px; fill: #000; opacity: 1;">STNDNG IN ALLEY</text></g></g></g><g transform="translate(0,91)"><path class="background" d="M0,0h138.6171875v11h-138.6171875Z" style="pointer-events: none; fill: none; opacity: 1;"></path><g><g class="mark-symbol role-legend-symbol" style="pointer-events: none;"><path transform="translate(6,6)" d="M-5,-5h10v10h-10Z" style="fill: #E74C3C; stroke-width: 1.5; opacity: 1;"></path></g><g class="mark-text role-legend-label" style="pointer-events: none;"><text text-anchor="start" transform="translate(16,9)" style="font-family: sans-serif; font-size: 10px; fill: #000; opacity: 1;">NO PARK/STREET CLEAN</text></g></g></g><g transform="translate(0,104)"><path class="background" d="M0,0h138.6171875v11h-138.6171875Z" style="pointer-events: none; fill: none; opacity: 1;"></path><g><g class="mark-symbol role-legend-symbol" style="pointer-events: none;"><path transform="translate(6,6)" d="M-5,-5h10v10h-10Z" style="fill: #29B6F6; stroke-width: 1.5; opacity: 1;"></path></g><g class="mark-text role-legend-label" style="pointer-events: none;"><text text-anchor="start" transform="translate(16,9)" style="font-family: sans-serif; font-size: 10px; fill: #000; opacity: 1;">PARK IN GRID LOCK ZN</text></g></g></g><g transform="translate(0,117)"><path class="background" d="M0,0h138.6171875v11h-138.6171875Z" style="pointer-events: none; fill: none; opacity: 1;"></path><g><g class="mark-symbol role-legend-symbol" style="pointer-events: none;"><path transform="translate(6,6)" d="M-5,-5h10v10h-10Z" style="fill: #CACFD2; stroke-width: 1.5; opacity: 1;"></path></g><g class="mark-text role-legend-label" style="pointer-events: none;"><text text-anchor="start" transform="translate(16,9)" style="font-family: sans-serif; font-size: 10px; fill: #000; opacity: 1;">NO STOP/STAND AM</text></g></g></g><g transform="translate(0,130)"><path class="background" d="M0,0h138.6171875v11h-138.6171875Z" style="pointer-events: none; fill: none; opacity: 1;"></path><g><g class="mark-symbol role-legend-symbol" style="pointer-events: none;"><path transform="translate(6,6)" d="M-5,-5h10v10h-10Z" style="fill: #99A3A4; stroke-width: 1.5; opacity: 1;"></path></g><g class="mark-text role-legend-label" style="pointer-events: none;"><text text-anchor="start" transform="translate(16,9)" style="font-family: sans-serif; font-size: 10px; fill: #000; opacity: 1;">NO STOP/STANDING</text></g></g></g><g transform="translate(0,143)"><path class="background" d="M0,0h138.6171875v11h-138.6171875Z" style="pointer-events: none; fill: none; opacity: 1;"></path><g><g class="mark-symbol role-legend-symbol" style="pointer-events: none;"><path transform="translate(6,6)" d="M-5,-5h10v10h-10Z" style="fill: #F1C40F; stroke-width: 1.5; opacity: 1;"></path></g><g class="mark-text role-legend-label" style="pointer-events: none;"><text text-anchor="start" transform="translate(16,9)" style="font-family: sans-serif; font-size: 10px; fill: #000; opacity: 1;">METER EXPIRED</text></g></g></g><g transform="translate(0,156)"><path class="background" d="M0,0h138.6171875v11h-138.6171875Z" style="pointer-events: none; fill: none; opacity: 1;"></path><g><g class="mark-symbol role-legend-symbol" style="pointer-events: none;"><path transform="translate(6,6)" d="M-5,-5h10v10h-10Z" style="fill: #0B5345; stroke-width: 1.5; opacity: 1;"></path></g><g class="mark-text role-legend-label" style="pointer-events: none;"><text text-anchor="start" transform="translate(16,9)" style="font-family: sans-serif; font-size: 10px; fill: #000; opacity: 1;">PKD OVER TIME LIMIT</text></g></g></g><g transform="translate(0,169)"><path class="background" d="M0,0h138.6171875v11h-138.6171875Z" style="pointer-events: none; fill: none; opacity: 1;"></path><g><g class="mark-symbol role-legend-symbol" style="pointer-events: none;"><path transform="translate(6,6)" d="M-5,-5h10v10h-10Z" style="fill: #641E16; stroke-width: 1.5; opacity: 1;"></path></g><g class="mark-text role-legend-label" style="pointer-events: none;"><text text-anchor="start" transform="translate(16,9)" style="font-family: sans-serif; font-size: 10px; fill: #000; opacity: 1;">BLOCKING DRIVEWAY</text></g></g></g></g></g></g></g><g class="mark-text role-legend-title" style="pointer-events: none;"><text text-anchor="start" transform="translate(0,9)" style="font-family: sans-serif; font-size: 11px; font-weight: bold; fill: #000; opacity: 1;">violation_description</text></g></g></g></g><g class="mark-group role-axis"><g transform="translate(0.5,300.5)"><path class="background" d="M0,0h0v0h0Z" style="pointer-events: none; fill: none;"></path><g><g class="mark-rule role-axis-tick" style="pointer-events: none;"><line transform="translate(13,0)" x2="0" y2="5" style="fill: none; stroke: #888; stroke-width: 1; opacity: 1;"></line><line transform="translate(40,0)" x2="0" y2="5" style="fill: none; stroke: #888; stroke-width: 1; opacity: 1;"></line><line transform="translate(67,0)" x2="0" y2="5" style="fill: none; stroke: #888; stroke-width: 1; opacity: 1;"></line><line transform="translate(94,0)" x2="0" y2="5" style="fill: none; stroke: #888; stroke-width: 1; opacity: 1;"></line><line transform="translate(121,0)" x2="0" y2="5" style="fill: none; stroke: #888; stroke-width: 1; opacity: 1;"></line><line transform="translate(148,0)" x2="0" y2="5" style="fill: none; stroke: #888; stroke-width: 1; opacity: 1;"></line><line transform="translate(175,0)" x2="0" y2="5" style="fill: none; stroke: #888; stroke-width: 1; opacity: 1;"></line><line transform="translate(202,0)" x2="0" y2="5" style="fill: none; stroke: #888; stroke-width: 1; opacity: 1;"></line><line transform="translate(229,0)" x2="0" y2="5" style="fill: none; stroke: #888; stroke-width: 1; opacity: 1;"></line><line transform="translate(256,0)" x2="0" y2="5" style="fill: none; stroke: #888; stroke-width: 1; opacity: 1;"></line><line transform="translate(283,0)" x2="0" y2="5" style="fill: none; stroke: #888; stroke-width: 1; opacity: 1;"></line><line transform="translate(310,0)" x2="0" y2="5" style="fill: none; stroke: #888; stroke-width: 1; opacity: 1;"></line><line transform="translate(338,0)" x2="0" y2="5" style="fill: none; stroke: #888; stroke-width: 1; opacity: 1;"></line><line transform="translate(365,0)" x2="0" y2="5" style="fill: none; stroke: #888; stroke-width: 1; opacity: 1;"></line><line transform="translate(392,0)" x2="0" y2="5" style="fill: none; stroke: #888; stroke-width: 1; opacity: 1;"></line><line transform="translate(419,0)" x2="0" y2="5" style="fill: none; stroke: #888; stroke-width: 1; opacity: 1;"></line><line transform="translate(446,0)" x2="0" y2="5" style="fill: none; stroke: #888; stroke-width: 1; opacity: 1;"></line><line transform="translate(473,0)" x2="0" y2="5" style="fill: none; stroke: #888; stroke-width: 1; opacity: 1;"></line><line transform="translate(500,0)" x2="0" y2="5" style="fill: none; stroke: #888; stroke-width: 1; opacity: 1;"></line><line transform="translate(527,0)" x2="0" y2="5" style="fill: none; stroke: #888; stroke-width: 1; opacity: 1;"></line><line transform="translate(554,0)" x2="0" y2="5" style="fill: none; stroke: #888; stroke-width: 1; opacity: 1;"></line><line transform="translate(581,0)" x2="0" y2="5" style="fill: none; stroke: #888; stroke-width: 1; opacity: 1;"></line><line transform="translate(608,0)" x2="0" y2="5" style="fill: none; stroke: #888; stroke-width: 1; opacity: 1;"></line><line transform="translate(635,0)" x2="0" y2="5" style="fill: none; stroke: #888; stroke-width: 1; opacity: 1;"></line></g><g class="mark-text role-axis-label" style="pointer-events: none;"><text text-anchor="end" transform="translate(12.541666666666686,7) rotate(270) translate(0,3)" style="font-family: sans-serif; font-size: 10px; fill: #000; opacity: 1;">00</text><text text-anchor="end" transform="translate(39.625000000000014,7) rotate(270) translate(0,3)" style="font-family: sans-serif; font-size: 10px; fill: #000; opacity: 1;">01</text><text text-anchor="end" transform="translate(66.70833333333334,7) rotate(270) translate(0,3)" style="font-family: sans-serif; font-size: 10px; fill: #000; opacity: 1;">02</text><text text-anchor="end" transform="translate(93.79166666666669,7) rotate(270) translate(0,3)" style="font-family: sans-serif; font-size: 10px; fill: #000; opacity: 1;">03</text><text text-anchor="end" transform="translate(120.87500000000001,7) rotate(270) translate(0,3)" style="font-family: sans-serif; font-size: 10px; fill: #000; opacity: 1;">04</text><text text-anchor="end" transform="translate(147.95833333333334,7) rotate(270) translate(0,3)" style="font-family: sans-serif; font-size: 10px; fill: #000; opacity: 1;">05</text><text text-anchor="end" transform="translate(175.04166666666669,7) rotate(270) translate(0,3)" style="font-family: sans-serif; font-size: 10px; fill: #000; opacity: 1;">06</text><text text-anchor="end" transform="translate(202.125,7) rotate(270) translate(0,3)" style="font-family: sans-serif; font-size: 10px; fill: #000; opacity: 1;">07</text><text text-anchor="end" transform="translate(229.20833333333334,7) rotate(270) translate(0,3)" style="font-family: sans-serif; font-size: 10px; fill: #000; opacity: 1;">08</text><text text-anchor="end" transform="translate(256.2916666666667,7) rotate(270) translate(0,3)" style="font-family: sans-serif; font-size: 10px; fill: #000; opacity: 1;">09</text><text text-anchor="end" transform="translate(283.375,7) rotate(270) translate(0,3)" style="font-family: sans-serif; font-size: 10px; fill: #000; opacity: 1;">10</text><text text-anchor="end" transform="translate(310.4583333333333,7) rotate(270) translate(0,3)" style="font-family: sans-serif; font-size: 10px; fill: #000; opacity: 1;">11</text><text text-anchor="end" transform="translate(337.5416666666667,7) rotate(270) translate(0,3)" style="font-family: sans-serif; font-size: 10px; fill: #000; opacity: 1;">12</text><text text-anchor="end" transform="translate(364.625,7) rotate(270) translate(0,3)" style="font-family: sans-serif; font-size: 10px; fill: #000; opacity: 1;">13</text><text text-anchor="end" transform="translate(391.7083333333333,7) rotate(270) translate(0,3)" style="font-family: sans-serif; font-size: 10px; fill: #000; opacity: 1;">14</text><text text-anchor="end" transform="translate(418.7916666666667,7) rotate(270) translate(0,3)" style="font-family: sans-serif; font-size: 10px; fill: #000; opacity: 1;">15</text><text text-anchor="end" transform="translate(445.875,7) rotate(270) translate(0,3)" style="font-family: sans-serif; font-size: 10px; fill: #000; opacity: 1;">16</text><text text-anchor="end" transform="translate(472.9583333333333,7) rotate(270) translate(0,3)" style="font-family: sans-serif; font-size: 10px; fill: #000; opacity: 1;">17</text><text text-anchor="end" transform="translate(500.0416666666667,7) rotate(270) translate(0,3)" style="font-family: sans-serif; font-size: 10px; fill: #000; opacity: 1;">18</text><text text-anchor="end" transform="translate(527.125,7) rotate(270) translate(0,3)" style="font-family: sans-serif; font-size: 10px; fill: #000; opacity: 1;">19</text><text text-anchor="end" transform="translate(554.2083333333333,7) rotate(270) translate(0,3)" style="font-family: sans-serif; font-size: 10px; fill: #000; opacity: 1;">20</text><text text-anchor="end" transform="translate(581.2916666666667,7) rotate(270) translate(0,3)" style="font-family: sans-serif; font-size: 10px; fill: #000; opacity: 1;">21</text><text text-anchor="end" transform="translate(608.375,7) rotate(270) translate(0,3)" style="font-family: sans-serif; font-size: 10px; fill: #000; opacity: 1;">22</text><text text-anchor="end" transform="translate(635.4583333333333,7) rotate(270) translate(0,3)" style="font-family: sans-serif; font-size: 10px; fill: #000; opacity: 1;">23</text></g><g class="mark-rule role-axis-domain" style="pointer-events: none;"><line transform="translate(0,0)" x2="650" y2="0" style="fill: none; stroke: #888; stroke-width: 1; opacity: 1;"></line></g><g class="mark-text role-axis-title" style="pointer-events: none;"><text text-anchor="middle" transform="translate(325,31.123046875)" style="font-family: sans-serif; font-size: 11px; font-weight: bold; fill: #000; opacity: 1;">Hour of Day</text></g></g></g></g><g class="mark-group role-axis"><g transform="translate(0.5,0.5)"><path class="background" d="M0,0h0v0h0Z" style="pointer-events: none; fill: none;"></path><g><g class="mark-rule role-axis-tick" style="pointer-events: none;"><line transform="translate(0,300)" x2="-5" y2="0" style="fill: none; stroke: #888; stroke-width: 1; opacity: 1;"></line><line transform="translate(0,275)" x2="-5" y2="0" style="fill: none; stroke: #888; stroke-width: 1; opacity: 1;"></line><line transform="translate(0,250)" x2="-5" y2="0" style="fill: none; stroke: #888; stroke-width: 1; opacity: 1;"></line><line transform="translate(0,225)" x2="-5" y2="0" style="fill: none; stroke: #888; stroke-width: 1; opacity: 1;"></line><line transform="translate(0,200)" x2="-5" y2="0" style="fill: none; stroke: #888; stroke-width: 1; opacity: 1;"></line><line transform="translate(0,175)" x2="-5" y2="0" style="fill: none; stroke: #888; stroke-width: 1; opacity: 1;"></line><line transform="translate(0,150)" x2="-5" y2="0" style="fill: none; stroke: #888; stroke-width: 1; opacity: 1;"></line><line transform="translate(0,125)" x2="-5" y2="0" style="fill: none; stroke: #888; stroke-width: 1; opacity: 1;"></line><line transform="translate(0,100)" x2="-5" y2="0" style="fill: none; stroke: #888; stroke-width: 1; opacity: 1;"></line><line transform="translate(0,75)" x2="-5" y2="0" style="fill: none; stroke: #888; stroke-width: 1; opacity: 1;"></line><line transform="translate(0,50)" x2="-5" y2="0" style="fill: none; stroke: #888; stroke-width: 1; opacity: 1;"></line><line transform="translate(0,25)" x2="-5" y2="0" style="fill: none; stroke: #888; stroke-width: 1; opacity: 1;"></line><line transform="translate(0,0)" x2="-5" y2="0" style="fill: none; stroke: #888; stroke-width: 1; opacity: 1;"></line></g><g class="mark-text role-axis-label" style="pointer-events: none;"><text text-anchor="end" transform="translate(-7,303)" style="font-family: sans-serif; font-size: 10px; fill: #000; opacity: 1;">0</text><text text-anchor="end" transform="translate(-7,278)" style="font-family: sans-serif; font-size: 10px; fill: #000; opacity: 1;">20,000</text><text text-anchor="end" transform="translate(-7,253)" style="font-family: sans-serif; font-size: 10px; fill: #000; opacity: 1;">40,000</text><text text-anchor="end" transform="translate(-7,228)" style="font-family: sans-serif; font-size: 10px; fill: #000; opacity: 1;">60,000</text><text text-anchor="end" transform="translate(-7,203)" style="font-family: sans-serif; font-size: 10px; fill: #000; opacity: 1;">80,000</text><text text-anchor="end" transform="translate(-7,178)" style="font-family: sans-serif; font-size: 10px; fill: #000; opacity: 1;">100,000</text><text text-anchor="end" transform="translate(-7,153)" style="font-family: sans-serif; font-size: 10px; fill: #000; opacity: 1;">120,000</text><text text-anchor="end" transform="translate(-7,128)" style="font-family: sans-serif; font-size: 10px; fill: #000; opacity: 1;">140,000</text><text text-anchor="end" transform="translate(-7,103)" style="font-family: sans-serif; font-size: 10px; fill: #000; opacity: 1;">160,000</text><text text-anchor="end" transform="translate(-7,78)" style="font-family: sans-serif; font-size: 10px; fill: #000; opacity: 1;">180,000</text><text text-anchor="end" transform="translate(-7,53)" style="font-family: sans-serif; font-size: 10px; fill: #000; opacity: 1;">200,000</text><text text-anchor="end" transform="translate(-7,28)" style="font-family: sans-serif; font-size: 10px; fill: #000; opacity: 1;">220,000</text><text text-anchor="end" transform="translate(-7,3)" style="font-family: sans-serif; font-size: 10px; fill: #000; opacity: 1;">240,000</text></g><g class="mark-rule role-axis-domain" style="pointer-events: none;"><line transform="translate(0,300)" x2="0" y2="-300" style="fill: none; stroke: #888; stroke-width: 1; opacity: 1;"></line></g><g class="mark-text role-axis-title" style="pointer-events: none;"><text text-anchor="middle" transform="translate(-47.1474609375,150) rotate(-90) translate(0,-2)" style="font-family: sans-serif; font-size: 11px; font-weight: bold; fill: #000; opacity: 1;">Total Number of Tickets</text></g></g></g></g></g></g></g></g></svg>